# xmcd CD database file
#
# Track frame offsets:
#	150
#	12251
#	23598
#	36257
#	48671
#	62092
#	76055
#	89565
#	103326
#	117064
#	130559
#	143623
#	155566
#	167997
#	177746
#	186873
#	199570
#	213576
#	224541
#	237925
#
# Disc length: 3340 seconds
#
# Revision: 0
# Processed by: cddbd v1.5.2PL0 Copyright (c) Steve Scherf et al.
# Submitted via: CDex 1.51
#
DISCID=1d0d0a14
DTITLE=Django Reinhart - anthology CD4
DYEAR=2008
DGENRE=Jazz
TTITLE0=I ve found a new baby
TTITLE1=Stardust
TTITLE2=Nagasaki
TTITLE3=Honeysuckle rose
TTITLE4=Japananese sandman
TTITLE5=Eddie s blue
TTITLE6=I ain t got nobody
TTITLE7=Body and soul
TTITLE8=Solid old man
TTITLE9=Stompin at the savoy
TTITLE10=Improvisation
TTITLE11=Improvisation 2
TTITLE12=Improvisation 3
TTITLE13=Improvisation 4
TTITLE14=Improvisation 47
TTITLE15=Improvisation 7
TTITLE16=Echoes of Spain
TTITLE17=Naguine
TTITLE18=Parfum
TTITLE19=Tear for two
EXTD=YEAR: 2008
EXTT0=
EXTT1=
EXTT2=
EXTT3=
EXTT4=
EXTT5=
EXTT6=
EXTT7=
EXTT8=
EXTT9=
EXTT10=
EXTT11=
EXTT12=
EXTT13=
EXTT14=
EXTT15=
EXTT16=
EXTT17=
EXTT18=
EXTT19=
PLAYORDER=
